<mxfile host="app.diagrams.net" modified="2024-07-18T15:27:28.310Z" agent="Mozilla/5.0 (Windows NT 10.0; Win64; x64) AppleWebKit/537.36 (KHTML, like Gecko) Chrome/122.0.0.0 Safari/537.36" etag="fQL2ottnXIRxRufqnmmq" version="24.6.4" type="github">
  <diagram name="第 1 页" id="Ey3t1xEmIb8TBDny8mWe">
    <mxGraphModel dx="1509" dy="785" grid="1" gridSize="10" guides="1" tooltips="1" connect="1" arrows="1" fold="1" page="1" pageScale="1" pageWidth="827" pageHeight="1169" math="0" shadow="0">
      <root>
        <mxCell id="0" />
        <mxCell id="1" parent="0" />
        <mxCell id="IoGNXSJVWRNBYTtk1fPB-15" value="" style="edgeStyle=orthogonalEdgeStyle;rounded=0;orthogonalLoop=1;jettySize=auto;html=1;" edge="1" parent="1" source="IoGNXSJVWRNBYTtk1fPB-1" target="IoGNXSJVWRNBYTtk1fPB-2">
          <mxGeometry relative="1" as="geometry" />
        </mxCell>
        <mxCell id="IoGNXSJVWRNBYTtk1fPB-1" value="点击刮刮卡组件" style="rounded=0;whiteSpace=wrap;html=1;" vertex="1" parent="1">
          <mxGeometry x="410" y="360" width="120" height="60" as="geometry" />
        </mxCell>
        <mxCell id="IoGNXSJVWRNBYTtk1fPB-16" value="" style="edgeStyle=orthogonalEdgeStyle;rounded=0;orthogonalLoop=1;jettySize=auto;html=1;" edge="1" parent="1" source="IoGNXSJVWRNBYTtk1fPB-2" target="IoGNXSJVWRNBYTtk1fPB-4">
          <mxGeometry relative="1" as="geometry" />
        </mxCell>
        <mxCell id="IoGNXSJVWRNBYTtk1fPB-35" value="" style="edgeStyle=orthogonalEdgeStyle;rounded=0;orthogonalLoop=1;jettySize=auto;html=1;" edge="1" parent="1" source="IoGNXSJVWRNBYTtk1fPB-2" target="IoGNXSJVWRNBYTtk1fPB-3">
          <mxGeometry relative="1" as="geometry" />
        </mxCell>
        <mxCell id="IoGNXSJVWRNBYTtk1fPB-2" value="是否已登录" style="rhombus;whiteSpace=wrap;html=1;" vertex="1" parent="1">
          <mxGeometry x="410" y="500" width="120" height="80" as="geometry" />
        </mxCell>
        <mxCell id="IoGNXSJVWRNBYTtk1fPB-3" value="调用useLogin&lt;div&gt;进行注册/登录&lt;/div&gt;" style="rounded=0;whiteSpace=wrap;html=1;" vertex="1" parent="1">
          <mxGeometry x="620" y="510" width="120" height="60" as="geometry" />
        </mxCell>
        <mxCell id="IoGNXSJVWRNBYTtk1fPB-4" value="&lt;div&gt;开始抽奖&lt;/div&gt;播放抽奖GIF动画&lt;div&gt;同时调用抽奖接口&lt;/div&gt;" style="rounded=0;whiteSpace=wrap;html=1;" vertex="1" parent="1">
          <mxGeometry x="410" y="660" width="120" height="60" as="geometry" />
        </mxCell>
        <mxCell id="IoGNXSJVWRNBYTtk1fPB-18" value="" style="edgeStyle=orthogonalEdgeStyle;rounded=0;orthogonalLoop=1;jettySize=auto;html=1;" edge="1" parent="1" target="IoGNXSJVWRNBYTtk1fPB-6">
          <mxGeometry relative="1" as="geometry">
            <mxPoint x="470" y="720" as="sourcePoint" />
          </mxGeometry>
        </mxCell>
        <mxCell id="IoGNXSJVWRNBYTtk1fPB-6" value="是否中奖" style="rhombus;whiteSpace=wrap;html=1;" vertex="1" parent="1">
          <mxGeometry x="410" y="800" width="120" height="80" as="geometry" />
        </mxCell>
        <mxCell id="IoGNXSJVWRNBYTtk1fPB-21" value="" style="edgeStyle=orthogonalEdgeStyle;rounded=0;orthogonalLoop=1;jettySize=auto;html=1;" edge="1" parent="1" source="IoGNXSJVWRNBYTtk1fPB-7" target="IoGNXSJVWRNBYTtk1fPB-12">
          <mxGeometry relative="1" as="geometry" />
        </mxCell>
        <mxCell id="IoGNXSJVWRNBYTtk1fPB-7" value="展示中奖弹窗" style="rounded=0;whiteSpace=wrap;html=1;" vertex="1" parent="1">
          <mxGeometry x="240" y="950" width="120" height="60" as="geometry" />
        </mxCell>
        <mxCell id="IoGNXSJVWRNBYTtk1fPB-10" value="展示未中奖弹窗" style="rounded=0;whiteSpace=wrap;html=1;" vertex="1" parent="1">
          <mxGeometry x="630" y="950" width="120" height="60" as="geometry" />
        </mxCell>
        <mxCell id="IoGNXSJVWRNBYTtk1fPB-12" value="是否支持生成&lt;div&gt;桌面图标&lt;/div&gt;" style="rhombus;whiteSpace=wrap;html=1;" vertex="1" parent="1">
          <mxGeometry x="240" y="1080" width="120" height="80" as="geometry" />
        </mxCell>
        <mxCell id="IoGNXSJVWRNBYTtk1fPB-13" value="展示生成桌面图标和查看详情按钮" style="rounded=0;whiteSpace=wrap;html=1;" vertex="1" parent="1">
          <mxGeometry x="100" y="1220" width="120" height="60" as="geometry" />
        </mxCell>
        <mxCell id="IoGNXSJVWRNBYTtk1fPB-14" value="展示加入WA社群和&lt;div&gt;查看详情按钮&lt;/div&gt;" style="rounded=0;whiteSpace=wrap;html=1;" vertex="1" parent="1">
          <mxGeometry x="390" y="1220" width="120" height="60" as="geometry" />
        </mxCell>
        <mxCell id="IoGNXSJVWRNBYTtk1fPB-19" value="" style="edgeStyle=orthogonalEdgeStyle;rounded=0;orthogonalLoop=1;jettySize=auto;html=1;exitX=0;exitY=0.5;exitDx=0;exitDy=0;entryX=0.5;entryY=0;entryDx=0;entryDy=0;" edge="1" parent="1" source="IoGNXSJVWRNBYTtk1fPB-6" target="IoGNXSJVWRNBYTtk1fPB-7">
          <mxGeometry relative="1" as="geometry">
            <mxPoint x="480" y="730" as="sourcePoint" />
            <mxPoint x="480" y="810" as="targetPoint" />
          </mxGeometry>
        </mxCell>
        <mxCell id="IoGNXSJVWRNBYTtk1fPB-20" value="" style="edgeStyle=orthogonalEdgeStyle;rounded=0;orthogonalLoop=1;jettySize=auto;html=1;exitX=1;exitY=0.5;exitDx=0;exitDy=0;entryX=0.5;entryY=0;entryDx=0;entryDy=0;" edge="1" parent="1" source="IoGNXSJVWRNBYTtk1fPB-6" target="IoGNXSJVWRNBYTtk1fPB-10">
          <mxGeometry relative="1" as="geometry">
            <mxPoint x="420" y="850" as="sourcePoint" />
            <mxPoint x="310" y="960" as="targetPoint" />
          </mxGeometry>
        </mxCell>
        <mxCell id="IoGNXSJVWRNBYTtk1fPB-22" value="" style="edgeStyle=orthogonalEdgeStyle;rounded=0;orthogonalLoop=1;jettySize=auto;html=1;exitX=0;exitY=0.5;exitDx=0;exitDy=0;entryX=0.5;entryY=0;entryDx=0;entryDy=0;" edge="1" parent="1" source="IoGNXSJVWRNBYTtk1fPB-12" target="IoGNXSJVWRNBYTtk1fPB-13">
          <mxGeometry relative="1" as="geometry">
            <mxPoint x="420" y="850" as="sourcePoint" />
            <mxPoint x="310" y="960" as="targetPoint" />
          </mxGeometry>
        </mxCell>
        <mxCell id="IoGNXSJVWRNBYTtk1fPB-23" value="" style="edgeStyle=orthogonalEdgeStyle;rounded=0;orthogonalLoop=1;jettySize=auto;html=1;exitX=1;exitY=0.5;exitDx=0;exitDy=0;entryX=0.5;entryY=0;entryDx=0;entryDy=0;" edge="1" parent="1" source="IoGNXSJVWRNBYTtk1fPB-12" target="IoGNXSJVWRNBYTtk1fPB-14">
          <mxGeometry relative="1" as="geometry">
            <mxPoint x="320" y="1180" as="sourcePoint" />
            <mxPoint x="240" y="1280" as="targetPoint" />
          </mxGeometry>
        </mxCell>
        <mxCell id="IoGNXSJVWRNBYTtk1fPB-27" value="是" style="text;html=1;align=center;verticalAlign=middle;resizable=0;points=[];autosize=1;strokeColor=none;fillColor=none;" vertex="1" parent="1">
          <mxGeometry x="470" y="598" width="40" height="30" as="geometry" />
        </mxCell>
        <mxCell id="IoGNXSJVWRNBYTtk1fPB-30" value="是" style="text;html=1;align=center;verticalAlign=middle;resizable=0;points=[];autosize=1;strokeColor=none;fillColor=none;" vertex="1" parent="1">
          <mxGeometry x="340" y="810" width="40" height="30" as="geometry" />
        </mxCell>
        <mxCell id="IoGNXSJVWRNBYTtk1fPB-31" value="否" style="text;html=1;align=center;verticalAlign=middle;resizable=0;points=[];autosize=1;strokeColor=none;fillColor=none;" vertex="1" parent="1">
          <mxGeometry x="580" y="808" width="40" height="30" as="geometry" />
        </mxCell>
        <mxCell id="IoGNXSJVWRNBYTtk1fPB-32" value="是" style="text;html=1;align=center;verticalAlign=middle;resizable=0;points=[];autosize=1;strokeColor=none;fillColor=none;" vertex="1" parent="1">
          <mxGeometry x="180" y="1088" width="40" height="30" as="geometry" />
        </mxCell>
        <mxCell id="IoGNXSJVWRNBYTtk1fPB-33" value="否" style="text;html=1;align=center;verticalAlign=middle;resizable=0;points=[];autosize=1;strokeColor=none;fillColor=none;" vertex="1" parent="1">
          <mxGeometry x="380" y="1088" width="40" height="30" as="geometry" />
        </mxCell>
        <mxCell id="IoGNXSJVWRNBYTtk1fPB-39" value="否" style="text;html=1;align=center;verticalAlign=middle;resizable=0;points=[];autosize=1;strokeColor=none;fillColor=none;" vertex="1" parent="1">
          <mxGeometry x="550" y="510" width="40" height="30" as="geometry" />
        </mxCell>
        <mxCell id="IoGNXSJVWRNBYTtk1fPB-40" value="" style="edgeStyle=orthogonalEdgeStyle;rounded=0;orthogonalLoop=1;jettySize=auto;html=1;exitX=0.5;exitY=1;exitDx=0;exitDy=0;entryX=1;entryY=0.5;entryDx=0;entryDy=0;" edge="1" parent="1" source="IoGNXSJVWRNBYTtk1fPB-3" target="IoGNXSJVWRNBYTtk1fPB-4">
          <mxGeometry relative="1" as="geometry">
            <mxPoint x="480" y="730" as="sourcePoint" />
            <mxPoint x="680" y="770" as="targetPoint" />
          </mxGeometry>
        </mxCell>
      </root>
    </mxGraphModel>
  </diagram>
</mxfile>
